<?xml version="1.0" standalone="no"?>
<!DOCTYPE svg PUBLIC "-//W3C//DTD SVG 20010904//EN"
 "http://www.w3.org/TR/2001/REC-SVG-20010904/DTD/svg10.dtd">
<svg version="1.0" xmlns="http://www.w3.org/2000/svg"
 width="533.000000pt" height="138.000000pt" viewBox="0 0 533.000000 138.000000"
 preserveAspectRatio="xMidYMid meet">

<g transform="translate(0.000000,138.000000) scale(0.100000,-0.100000)"
fill="#000000" stroke="none">
<path d="M3800 1053 c-40 -87 -77 -170 -82 -185 -12 -34 -13 -34 -50 -3 -16
14 -35 25 -42 25 -28 0 -82 -47 -102 -88 -13 -28 -37 -54 -70 -76 -112 -75
-296 -187 -301 -182 -3 2 14 44 36 92 36 76 50 124 37 124 -2 0 -42 -38 -88
-85 -58 -59 -91 -85 -107 -85 -22 0 -23 3 -17 38 3 22 15 60 27 86 11 26 18
50 15 53 -3 3 -41 -29 -85 -72 -75 -73 -162 -144 -203 -166 -16 -9 -18 -5 -18
36 0 32 -6 51 -20 65 -26 26 -26 26 11 67 57 65 18 119 -58 79 -16 -8 -58 -24
-92 -36 -35 -12 -90 -34 -121 -50 -32 -16 -60 -26 -64 -23 -3 4 -6 19 -6 34 0
41 -9 58 -41 75 -106 54 -243 -139 -162 -229 18 -19 64 -22 96 -6 12 6 42 31
67 54 43 42 205 124 275 141 17 4 39 13 50 20 26 18 54 18 61 -1 4 -10 -10
-33 -36 -62 -41 -44 -42 -47 -24 -59 38 -27 44 -35 44 -67 0 -48 -20 -70 -112
-123 -109 -62 -198 -131 -198 -153 0 -72 136 -44 224 48 22 22 51 62 65 88 17
31 48 64 89 95 35 26 97 77 137 113 72 64 74 65 64 33 -32 -112 19 -130 119
-43 28 26 52 42 52 35 0 -21 -60 -129 -91 -165 -18 -20 -56 -52 -85 -71 -55
-37 -133 -116 -165 -169 -27 -43 -25 -100 3 -119 30 -22 76 -20 115 3 32 20
99 142 138 253 17 49 58 107 97 137 50 38 307 201 317 201 6 0 11 -6 11 -14 0
-21 40 -46 73 -46 15 0 30 -6 33 -13 2 -7 -24 -96 -59 -198 -67 -191 -87 -262
-69 -244 5 6 31 75 57 155 94 287 111 320 162 320 14 0 26 -23 52 -95 19 -52
47 -115 62 -139 34 -53 95 -86 163 -86 70 0 146 43 146 83 0 17 -2 17 -21 -7
-65 -83 -205 -73 -268 20 -27 39 -90 199 -91 229 0 14 24 38 78 76 143 104
457 408 439 425 -3 3 -54 -44 -113 -106 -121 -125 -274 -261 -353 -315 -56
-37 -73 -36 -86 6 -6 17 60 175 151 363 26 54 29 66 15 66 -5 0 -41 -71 -81
-157z m-131 -225 c13 -23 14 -32 2 -65 -20 -57 -39 -73 -82 -73 -30 0 -42 6
-54 24 -14 22 -14 27 1 65 31 79 102 105 133 49z m38 -102 c-4 -9 -11 -16 -17
-16 -11 0 -14 33 -3 44 11 10 26 -11 20 -28z m-1423 -19 c-6 -41 -4 -46 27
-71 l34 -26 -33 -30 c-48 -44 -103 -37 -116 15 -8 31 21 102 55 133 33 32 39
27 33 -21z m94 14 c6 -42 -6 -71 -31 -71 -48 0 -64 55 -24 83 30 22 51 17 55
-12z m308 -299 c-21 -39 -94 -107 -143 -132 -43 -22 -94 -24 -100 -3 -8 24
226 181 249 167 4 -3 2 -17 -6 -32z m389 6 c-35 -116 -103 -248 -140 -272 -46
-30 -115 -10 -115 34 0 42 109 166 200 229 54 37 63 38 55 9z"/>
<path d="M4782 1187 c-39 -22 -110 -128 -173 -257 -33 -69 -64 -132 -68 -140
-6 -11 -22 -14 -52 -12 -79 6 -120 -14 -218 -103 -100 -92 -152 -118 -179 -92
-14 15 -13 23 14 89 16 40 31 76 32 80 2 5 -1 8 -7 8 -24 0 -76 -137 -67 -175
13 -50 92 -36 174 31 l32 27 -6 -29 c-4 -22 0 -34 15 -48 27 -24 65 -15 136
35 31 21 60 39 64 39 5 0 12 -17 16 -37 10 -53 21 -63 70 -63 53 0 142 56 210
133 53 60 102 97 127 97 30 0 21 -41 -19 -82 l-36 -37 31 -30 c42 -39 43 -82
3 -119 -15 -15 -67 -49 -115 -76 -120 -68 -168 -111 -164 -145 3 -23 8 -26 46
-29 78 -6 178 67 238 174 25 44 49 71 87 96 98 66 270 228 241 228 -4 0 -41
-32 -83 -72 -42 -39 -103 -91 -136 -116 l-60 -44 -5 46 c-4 26 -15 55 -27 68
l-21 23 34 39 c37 43 42 67 19 86 -32 27 -75 3 -179 -98 -111 -108 -175 -144
-215 -123 -25 14 -29 38 -15 100 3 13 56 77 119 141 121 125 180 206 201 277
16 52 9 100 -17 113 -21 12 -19 12 -47 -3z m48 -32 c11 -13 11 -24 0 -58 -28
-93 -72 -159 -184 -274 -112 -116 -114 -100 -12 104 71 141 142 243 171 243 7
0 18 -7 25 -15z m-326 -411 c9 -8 16 -19 16 -24 0 -15 -109 -106 -154 -128
-50 -26 -76 -20 -76 15 0 93 158 194 214 137z m366 -294 c0 -62 -145 -180
-220 -180 -65 0 -14 60 120 139 89 53 100 58 100 41z"/>
<path d="M2079 1162 c-90 -37 -240 -162 -313 -261 -88 -119 -155 -313 -142
-405 27 -177 250 -159 464 37 69 65 48 62 -30 -4 -79 -66 -189 -124 -254 -135
-142 -22 -193 97 -123 291 89 247 335 475 511 475 78 0 109 -42 87 -118 -20
-73 -136 -182 -194 -182 -8 0 -15 -7 -15 -15 0 -24 27 -18 83 18 122 78 184
219 128 288 -26 32 -135 38 -202 11z"/>
<path d="M975 1011 c-6 -5 -50 -11 -100 -13 -74 -4 -101 -10 -148 -33 -115
-57 -194 -178 -221 -339 l-11 -68 -114 -42 c-120 -43 -159 -73 -145 -110 6
-16 15 -18 58 -13 28 3 78 17 112 32 l61 26 124 -55 c186 -82 215 -89 317 -84
59 4 101 12 132 26 40 19 57 20 151 15 58 -3 118 -3 134 1 l27 7 -4 177 c-3
169 -4 180 -31 237 -43 92 -110 153 -212 191 -27 10 -56 26 -63 36 -14 19 -52
24 -67 9z m59 -39 c85 -24 101 -50 100 -155 -1 -78 -47 -333 -63 -350 -4 -4
-86 13 -182 38 -96 26 -191 51 -211 56 -21 5 -38 16 -38 23 0 24 76 239 103
292 14 28 38 65 52 83 26 30 29 31 103 30 43 0 104 -8 136 -17z m-254 -7 c0
-2 -11 -20 -25 -40 -27 -41 -95 -213 -116 -294 -15 -58 -13 -57 -81 -64 l-48
-5 6 42 c16 120 71 239 135 294 48 41 129 84 129 67z m381 -41 c50 -25 109
-85 134 -133 34 -68 45 -138 45 -283 0 -120 -1 -130 -17 -123 -10 4 -68 21
-128 38 l-111 31 28 126 c37 166 46 273 25 323 -18 42 -17 43 24 21z m-254
-435 c134 -35 243 -67 243 -71 0 -12 -83 -56 -147 -77 -72 -24 -158 -27 -224
-7 -25 8 -109 41 -187 75 -79 34 -146 61 -150 61 -4 0 -25 5 -47 12 l-40 11
100 34 c76 25 113 32 155 30 30 -2 164 -32 297 -68z"/>
<path d="M4175 906 c-18 -13 -16 -46 3 -46 15 0 44 38 37 49 -8 14 -17 14 -40
-3z"/>
</g>
</svg>
